<svg width="16" height="16" viewBox="0 0 16 16" fill="none" xmlns="http://www.w3.org/2000/svg">
<path d="M13.0689 5.15699L8.38395 9.76799C8.28173 9.86912 8.14374 9.92584 7.99995 9.92584C7.85616 9.92584 7.71817 9.86912 7.61595 9.76799L2.93095 5.15799C2.82809 5.05691 2.68965 5.00028 2.54545 5.00028C2.40124 5.00028 2.2628 5.05691 2.15995 5.15799C2.1093 5.20737 2.06905 5.26638 2.04156 5.33156C2.01408 5.39674 1.99992 5.46676 1.99992 5.53749C1.99992 5.60822 2.01408 5.67824 2.04156 5.74342C2.06905 5.8086 2.1093 5.86761 2.15995 5.91699L6.84395 10.527C7.15247 10.8299 7.56757 10.9996 7.99995 10.9996C8.43232 10.9996 8.84743 10.8299 9.15595 10.527L13.8399 5.91699C13.8907 5.8676 13.9311 5.80852 13.9587 5.74325C13.9863 5.67798 14.0005 5.60784 14.0005 5.53699C14.0005 5.46613 13.9863 5.396 13.9587 5.33073C13.9311 5.26546 13.8907 5.20638 13.8399 5.15699C13.7371 5.05591 13.5987 4.99928 13.4544 4.99928C13.3102 4.99928 13.1718 5.05591 13.0689 5.15699Z" fill="white"/>
</svg>
