<svg width="46" height="46" viewBox="0 0 46 46" fill="none" xmlns="http://www.w3.org/2000/svg">
<path d="M31.9844 6.46875C28.3745 6.46875 25.1706 7.89367 23 10.3428C20.8294 7.89367 17.6255 6.46875 14.0156 6.46875C10.8715 6.47255 7.85722 7.72324 5.63398 9.94648C3.41074 12.1697 2.16005 15.184 2.15625 18.3281C2.15625 31.3267 21.169 41.7127 21.9776 42.1493C22.2918 42.3185 22.6431 42.4071 23 42.4071C23.3569 42.4071 23.7082 42.3185 24.0224 42.1493C24.831 41.7127 43.8438 31.3267 43.8438 18.3281C43.8399 15.184 42.5893 12.1697 40.366 9.94648C38.1428 7.72324 35.1285 6.47255 31.9844 6.46875ZM30.9979 32.0491C28.4953 34.1727 25.8201 36.084 23 37.7631C20.1799 36.084 17.5047 34.1727 15.0021 32.0491C11.1083 28.7087 6.46875 23.6145 6.46875 18.3281C6.46875 16.3266 7.26386 14.407 8.67918 12.9917C10.0945 11.5764 12.0141 10.7812 14.0156 10.7812C17.2141 10.7812 19.8914 12.4703 21.0037 15.1908C21.1656 15.5874 21.4419 15.9267 21.7975 16.1656C22.153 16.4045 22.5716 16.5321 23 16.5321C23.4284 16.5321 23.847 16.4045 24.2025 16.1656C24.5581 15.9267 24.8344 15.5874 24.9963 15.1908C26.1086 12.4703 28.7859 10.7812 31.9844 10.7812C33.9859 10.7812 35.9055 11.5764 37.3208 12.9917C38.7361 14.407 39.5312 16.3266 39.5312 18.3281C39.5312 23.6145 34.8917 28.7087 30.9979 32.0491Z" fill="white"/>
</svg>
