<svg width="42" height="42" viewBox="0 0 42 42" fill="none" xmlns="http://www.w3.org/2000/svg">
<path d="M20.9837 22.201C22.2246 22.201 23.4533 21.9566 24.5997 21.4818C25.7461 21.0069 26.7877 20.3109 27.6652 19.4335C28.5426 18.556 29.2386 17.5144 29.7135 16.368C30.1883 15.2216 30.4327 13.9929 30.4327 12.752C30.4327 11.5111 30.1883 10.2824 29.7135 9.136C29.2386 7.98959 28.5426 6.94794 27.6652 6.07052C26.7877 5.19309 25.7461 4.49708 24.5997 4.02223C23.4533 3.54737 22.2246 3.30296 20.9837 3.30296C18.4777 3.30296 16.0743 4.29848 14.3022 6.07052C12.5302 7.84255 11.5347 10.246 11.5347 12.752C11.5347 15.258 12.5302 17.6614 14.3022 19.4335C16.0743 21.2055 18.4777 22.201 20.9837 22.201ZM20.9984 6.68881e-07C23.7642 -0.000900286 26.4535 0.908385 28.6513 2.58756C30.8491 4.26673 32.4332 6.62248 33.1593 9.29132C33.8854 11.9602 33.7131 14.7938 32.6689 17.3549C31.6248 19.9161 29.7668 22.0625 27.3817 23.463C35.1257 25.7937 40.9421 32.3199 41.9857 40.4251C42.0844 41.1957 41.5112 41.8949 40.7049 41.9894C39.9007 42.0839 39.1657 41.5379 39.067 40.7673C37.9331 31.9692 30.313 25.3444 21.0719 25.3444C11.7803 25.3444 4.06154 31.9818 2.92975 40.7673C2.83106 41.5379 2.09614 42.0839 1.29192 41.9894C0.485603 41.8949 -0.0876382 41.1957 0.0110517 40.4251C1.05254 32.3535 6.90044 25.8357 14.657 23.484C12.2647 22.0899 10.3983 19.9465 9.34635 17.3852C8.29439 14.824 8.1155 11.9875 8.83732 9.31433C9.55915 6.64119 11.1415 4.28029 13.3397 2.59666C15.5379 0.913024 18.2295 0.000439405 20.9984 6.68881e-07Z" fill="white"/>
</svg>
