<svg width="51" height="51" viewBox="0 0 51 51" fill="none" xmlns="http://www.w3.org/2000/svg">
<path d="M43.7319 8.88834H40.0278C39.9122 4.08979 35.6756 0 30.4433 0C25.2111 0 20.9745 4.08979 20.8579 8.88737H17.1765C12.3383 8.88737 9.90643 11.2408 9.90643 15.9711V24.7678C10.5327 24.6996 11.157 24.6538 11.7595 24.6538C12.3861 24.6576 13.012 24.6957 13.6343 24.7678V16.1534C13.6343 13.7776 14.9313 12.5657 17.2229 12.5657H43.6618C45.9534 12.5657 47.2731 13.7776 47.2731 16.1534V39.4375C47.2731 41.8133 45.9534 43.0252 44.3562 43.0252H26.1821C25.8787 44.3179 25.3792 45.5581 24.7004 46.7035H44.4263C48.5691 46.7035 51 44.3277 51 39.6198V15.9721C51 11.2642 48.5474 8.88834 43.7319 8.88834ZM30.4433 3.47266C33.708 3.47266 36.208 5.89534 36.3009 8.88834H24.5858C24.7014 5.89534 27.1787 3.47266 30.4433 3.47266ZM11.7605 51C18.1504 51 23.521 45.7452 23.521 39.3926C23.521 33.04 18.2196 27.7852 11.7605 27.7852C5.32413 27.7852 0 33.04 0 39.3926C0 45.791 5.32413 51 11.7605 51ZM11.7832 46.9326C10.9732 46.9326 10.2551 46.3847 10.2551 45.5385V40.7867H5.83382C5.04656 40.7867 4.39858 40.1462 4.39858 39.3926C4.39858 38.639 5.04656 37.9985 5.83382 37.9985H10.2551V33.2701C10.2551 32.4024 10.9732 31.8536 11.7832 31.8536C12.5705 31.8536 13.2886 32.4015 13.2886 33.2701V37.9994H17.7099C18.4971 37.9994 19.1224 38.64 19.1224 39.3936C19.1224 40.1472 18.4971 40.7877 17.7099 40.7877H13.2886V45.5405C13.2886 46.3857 12.5705 46.9346 11.7832 46.9346" fill="white"/>
</svg>
